<svg xmlns="http://www.w3.org/2000/svg" xmlns:xlink="http://www.w3.org/1999/xlink" preserveAspectRatio="xMidYMid meet" viewBox="62.99 160 268.73 50"><defs><g></g><clipPath id="86546d6666"><path d="M 185.144531 184 L 211 184 L 211 198.664062 L 185.144531 198.664062 Z M 185.144531 184 " clip-rule="nonzero"></path></clipPath><clipPath id="4628ce0137"><path d="M 190 167.164062 L 221.144531 167.164062 L 221.144531 198.664062 L 190 198.664062 Z M 190 167.164062 " clip-rule="nonzero"></path></clipPath><clipPath id="4eaaa8078d"><path d="M 62.992188 160 L 97 160 L 97 189 L 62.992188 189 Z M 62.992188 160 " clip-rule="nonzero"></path></clipPath><clipPath id="45a7816ddd"><path d="M 300 183 L 331.371094 183 L 331.371094 210 L 300 210 Z M 300 183 " clip-rule="nonzero"></path></clipPath></defs><g fill="#282828" fill-opacity="1"><g transform="translate(73.055208, 198.95596)"><g><path d="M 15.148438 -5.894531 C 12.699219 -5.894531 11.339844 -7.257812 11.339844 -9.613281 L 11.339844 -19.140625 L 18.003906 -19.140625 L 18.003906 -24.492188 L 11.246094 -24.492188 L 11.246094 -30.839844 L 9.976562 -30.839844 L 0.316406 -20.589844 L 0.316406 -19.140625 L 4.714844 -19.140625 L 4.714844 -8.707031 C 4.714844 -3.3125 8.027344 0 13.425781 0 L 18.140625 0 L 18.140625 -5.894531 Z M 15.148438 -5.894531 "></path></g></g></g><g fill="#282828" fill-opacity="1"><g transform="translate(90.742158, 198.95596)"><g><path d="M 26.9375 -12.289062 C 26.9375 -19.367188 21.769531 -25.171875 14.242188 -25.171875 C 6.984375 -25.171875 1.542969 -19.59375 1.542969 -12.246094 C 1.542969 -4.898438 7.03125 0.726562 14.242188 0.726562 C 19.957031 0.726562 24.625 -2.675781 26.394531 -8.027344 L 19.457031 -8.027344 C 18.457031 -6.257812 16.554688 -5.171875 14.242188 -5.171875 C 11.019531 -5.171875 8.84375 -7.03125 8.253906 -10.386719 L 26.804688 -10.386719 C 26.894531 -11.019531 26.9375 -11.65625 26.9375 -12.289062 Z M 14.242188 -19.5 C 17.234375 -19.5 19.367188 -17.867188 20.316406 -14.875 L 8.4375 -14.875 C 9.207031 -17.777344 11.292969 -19.5 14.242188 -19.5 Z M 14.242188 -19.5 "></path></g></g></g><g fill="#282828" fill-opacity="1"><g transform="translate(117.408715, 198.95596)"><g><path d="M 14.558594 0.726562 C 20.953125 0.726562 25.988281 -3.445312 27.121094 -9.613281 L 20.453125 -9.613281 C 19.320312 -6.984375 17.234375 -5.53125 14.558594 -5.53125 C 11.019531 -5.53125 8.253906 -8.480469 8.253906 -12.246094 C 8.253906 -16.054688 10.976562 -18.957031 14.558594 -18.957031 C 17.1875 -18.957031 19.410156 -17.507812 20.453125 -15.101562 L 27.03125 -15.101562 C 25.851562 -21.132812 20.953125 -25.171875 14.601562 -25.171875 C 7.164062 -25.171875 1.542969 -19.636719 1.542969 -12.289062 C 1.542969 -4.945312 7.164062 0.726562 14.558594 0.726562 Z M 14.558594 0.726562 "></path></g></g></g><g fill="#282828" fill-opacity="1"><g transform="translate(143.939214, 198.95596)"><g><path d="M 17.1875 -25.035156 C 14.242188 -25.035156 11.65625 -23.945312 9.796875 -22.175781 L 9.796875 -33.289062 L 3.175781 -33.289062 L 3.175781 0 L 9.796875 0 L 9.796875 -12.835938 C 9.796875 -16.824219 11.972656 -19.230469 15.285156 -19.230469 C 18.230469 -19.230469 19.546875 -17.414062 19.546875 -13.742188 L 19.546875 0 L 26.167969 0 L 26.167969 -14.875 C 26.167969 -21.089844 22.722656 -25.035156 17.1875 -25.035156 Z M 17.1875 -25.035156 "></path></g></g></g><g clip-path="url(#86546d6666)"><path fill="#ff0000" d="M 199.5625 184.402344 L 200.515625 189.164062 L 193.996094 189.167969 C 191.992188 189.167969 190.183594 190.144531 189.136719 191.699219 C 189.007812 191.886719 185.144531 198.667969 185.144531 198.667969 L 190.90625 198.667969 L 194.5625 192.269531 L 210.984375 192.269531 L 199.5625 184.402344 " fill-opacity="1" fill-rule="nonzero"></path></g><g clip-path="url(#4628ce0137)"><path fill="#282828" d="M 203.144531 167.171875 L 190.621094 189.082031 C 191.628906 188.519531 192.785156 188.210938 193.996094 188.210938 L 196.886719 188.207031 L 203.144531 177.257812 L 215.382812 198.667969 L 221.144531 198.667969 L 203.144531 167.171875 " fill-opacity="1" fill-rule="nonzero"></path></g><g clip-path="url(#4eaaa8078d)"><path fill="#ff0000" d="M 63.996094 161.039062 L 96.082031 161.039062 L 96.082031 160.03125 L 62.992188 160.03125 L 62.992188 188.738281 L 63.996094 188.738281 Z M 63.996094 161.039062 " fill-opacity="1" fill-rule="nonzero"></path></g><g fill="#ff0000" fill-opacity="1"><g transform="translate(221.615233, 198.95596)"><g><path d="M 3.175781 0 L 9.796875 0 L 9.796875 -33.289062 L 3.175781 -33.289062 Z M 3.175781 0 "></path></g></g></g><g fill="#ff0000" fill-opacity="1"><g transform="translate(232.771567, 198.95596)"><g><path d="M 16.507812 -25.171875 C 13.46875 -25.171875 10.75 -24.082031 8.664062 -22.222656 L 7.527344 -24.492188 L 3.175781 -24.492188 L 3.175781 8.84375 L 9.796875 8.84375 L 9.796875 -1.316406 C 11.65625 0 13.96875 0.769531 16.507812 0.769531 C 23.902344 0.769531 29.34375 -4.808594 29.34375 -12.246094 C 29.34375 -19.636719 23.902344 -25.171875 16.507812 -25.171875 Z M 15.964844 -5.53125 C 12.109375 -5.53125 9.296875 -8.390625 9.296875 -12.246094 C 9.296875 -16.054688 12.109375 -18.957031 15.964844 -18.957031 C 19.820312 -18.957031 22.632812 -16.054688 22.632812 -12.246094 C 22.632812 -8.390625 19.820312 -5.53125 15.964844 -5.53125 Z M 15.964844 -5.53125 "></path></g></g></g><g fill="#ff0000" fill-opacity="1"><g transform="translate(261.887102, 198.95596)"><g><path d="M 17.1875 -25.035156 C 14.242188 -25.035156 11.65625 -23.945312 9.796875 -22.175781 L 9.796875 -33.289062 L 3.175781 -33.289062 L 3.175781 0 L 9.796875 0 L 9.796875 -12.835938 C 9.796875 -16.824219 11.972656 -19.230469 15.285156 -19.230469 C 18.230469 -19.230469 19.546875 -17.414062 19.546875 -13.742188 L 19.546875 0 L 26.167969 0 L 26.167969 -14.875 C 26.167969 -21.089844 22.722656 -25.035156 17.1875 -25.035156 Z M 17.1875 -25.035156 "></path></g></g></g><g fill="#ff0000" fill-opacity="1"><g transform="translate(289.143225, 198.95596)"><g><path d="M 23.128906 -24.492188 L 22.449219 -22.175781 C 20.316406 -24.035156 17.550781 -25.171875 14.375 -25.171875 C 7.03125 -25.171875 1.542969 -19.636719 1.542969 -12.246094 C 1.542969 -4.851562 7.03125 0.726562 14.375 0.726562 C 17.507812 0.726562 20.226562 -0.363281 22.3125 -2.222656 L 22.902344 0 L 28.074219 0 L 28.074219 -24.492188 Z M 14.921875 -5.53125 C 11.066406 -5.53125 8.253906 -8.4375 8.253906 -12.246094 C 8.253906 -16.101562 11.066406 -18.957031 14.921875 -18.957031 C 18.777344 -18.957031 21.585938 -16.101562 21.585938 -12.246094 C 21.585938 -8.390625 18.777344 -5.53125 14.921875 -5.53125 Z M 14.921875 -5.53125 "></path></g></g></g><g clip-path="url(#45a7816ddd)"><path fill="#282828" d="M 330.773438 209.03125 L 300.4375 209.03125 L 300.4375 209.976562 L 331.722656 209.976562 L 331.722656 183.042969 L 330.773438 183.042969 Z M 330.773438 209.03125 " fill-opacity="1" fill-rule="nonzero"></path></g></svg>